<svg xmlns="http://www.w3.org/2000/svg" xml:space="preserve" style="enable-background:new 0 0 328.85 113.02" viewBox="9.93 11.09 300.71 91.47"><style>.st0{fill:#002d5d}</style><g id="Layer_1"><path d="M82.35 75.14v22.23H71.22V45.71h11.13v7.92c3.6-6.7 12.77-9.72 23.78-7.89l.07 11.3c-11.38-4.44-23.85 3.53-23.85 18.1zM126.02 75.14v22.23h-11.13V45.71h11.13v7.92c3.6-6.7 12.77-9.72 23.78-7.89l.07 11.3c-11.38-4.44-23.85 3.53-23.85 18.1zM157.6 45.71h11.25v51.67H157.6V45.71zM237.85 45.71h11.25v51.67h-11.25V45.71zM50.15 45.71v7.14l-1.22-1.4c-1.47-1.68-3.43-3.15-5.82-4.39-2.38-1.22-5.4-1.84-9-1.84-3.62 0-6.95.59-9.88 1.76-2.93 1.16-5.48 2.84-7.6 4.99-2.11 2.15-3.78 4.8-4.94 7.87-1.17 3.09-1.76 6.6-1.76 10.44 0 4.07.6 7.9 1.77 11.4 1.17 3.48 2.89 6.51 5.12 9.02 1.19 1.18 2.49 2.18 3.84 3.03.1.07.2.13.31.19.14.08.28.17.42.25 1.15.68 2.36 1.27 3.65 1.77 3.04 1.17 6.48 1.76 10.23 1.76 3.72 0 6.85-.62 9.31-1.84 2.24-1.12 4.11-2.43 5.57-3.92v5.43h11.76V45.71H50.15zM26.88 59.75c1.74-2.09 3.97-3.42 6.63-3.94 1.75-.34 3.82-.34 5.57 0 2.66.52 4.89 1.85 6.63 3.94 2.29 2.75 3.45 6.88 3.45 12.28 0 5.4-1.16 9.54-3.45 12.29-1.74 2.09-3.97 3.41-6.63 3.94-.88.17-1.81.26-2.79.26-.97 0-1.91-.09-2.79-.26-2.66-.52-4.89-1.85-6.63-3.94-2.29-2.75-3.45-6.88-3.45-12.29.01-5.4 1.17-9.53 3.46-12.28zM298.88 45.71v7.14l-1.22-1.4c-1.47-1.68-3.43-3.15-5.82-4.39-2.38-1.22-5.4-1.84-9-1.84-3.62 0-6.95.59-9.88 1.76-2.93 1.16-5.48 2.84-7.6 4.99-2.11 2.15-3.78 4.8-4.94 7.87-1.17 3.09-1.76 6.6-1.76 10.44 0 4.07.6 7.9 1.77 11.4 1.17 3.48 2.89 6.51 5.12 9.02 1.19 1.18 2.49 2.18 3.84 3.03.1.07.2.13.31.19.14.08.28.17.42.25 1.15.68 2.36 1.27 3.65 1.77 3.04 1.17 6.48 1.76 10.23 1.76 3.72 0 6.85-.62 9.31-1.84 2.24-1.12 4.11-2.43 5.57-3.92v5.43h11.76V45.71h-11.76zm-23.27 14.04c1.74-2.09 3.97-3.42 6.63-3.94 1.75-.34 3.82-.34 5.57 0 2.66.52 4.89 1.85 6.63 3.94 2.29 2.75 3.45 6.88 3.45 12.28 0 5.4-1.16 9.54-3.45 12.29-1.74 2.09-3.97 3.41-6.63 3.94-.88.17-1.81.26-2.79.26-.97 0-1.91-.09-2.79-.26-2.66-.52-4.89-1.85-6.63-3.94-2.29-2.75-3.45-6.88-3.45-12.29.01-5.4 1.17-9.53 3.46-12.28zM176.58 45.7h13.87l13.25 30.69 13.25-30.69h13.87l-25.27 50.4c-.76 1.52-2.93 1.52-3.69 0l-25.28-50.4z" class="st0"/><path d="m208.31 95.03-.98 1.97c-.69 1.38-2.08 2.24-3.63 2.24s-2.94-.86-3.63-2.24l-.99-1.96c-8.54.41-14.88 1.91-14.88 3.7 0 2.11 8.75 3.82 19.54 3.82s19.54-1.71 19.54-3.82c-.01-1.8-6.39-3.3-14.97-3.71z" style="fill:#8fdade"/><path d="M217.55 39.98c0 .53-.03 1.06-.09 1.6H231c.03-.56.05-1.09.05-1.6 0-15.93-11.64-28.89-27.58-28.89S175.9 24.05 175.9 39.98c0 .51.02 1.04.05 1.6h13.54c-.06-.55-.09-1.08-.09-1.6 0-8.49 5.59-15.39 14.08-15.39s14.07 6.9 14.07 15.39z" style="fill:#00a0af"/></g></svg>