<svg xmlns="http://www.w3.org/2000/svg" fill="none" viewBox="0 0 57 31.75"><path fill="#00D639" d="M6.417 0C2.771 0 0 2.762 0 6.306c0 3.885 2.77 5.385 5.843 6.306 2.907.92 4.285 1.942 4.285 3.957 0 2.044-1.522 3.48-3.51 3.48-1.995 0-3.718-1.436-3.718-3.646 0-1.225.574-1.537.574-2.218 0-.783-.538-1.363-1.421-1.363C1.048 12.822 0 14.359 0 16.54c0 3.516 3.008 6.103 6.618 6.103 3.646 0 6.417-2.761 6.417-6.306 0-3.856-2.77-5.385-5.871-6.306-2.872-.884-4.257-1.942-4.257-3.957 0-2.008 1.486-3.443 3.474-3.443 2.06 0 3.718 1.464 3.747 3.48.036.92.675 1.463 1.421 1.463.776 0 1.486-.543 1.45-1.536C12.935 2.522 10 0 6.417 0Zm14.657 22.607c1.623 0 2.872-.544 2.872-1.638 0-.82-.675-1.363-1.321-1.363-.474 0-.811.203-1.587.203-2.095 0-3.746-1.805-3.746-3.921 0-2.283 1.686-4.095 3.818-4.095 2.398 0 3.92 1.84 3.92 4.5v4.879c0 .855.674 1.435 1.485 1.435.776 0 1.45-.58 1.45-1.435v-4.98c0-4.088-2.8-7.088-6.79-7.088-3.718 0-6.79 2.899-6.79 6.784 0 3.754 3.043 6.719 6.69 6.719Zm14.859 9.14c3.646 0 6.417-2.762 6.417-6.306 0-3.885-2.77-5.385-5.872-6.306-2.87-.92-4.256-1.942-4.256-3.957 0-2.015 1.521-3.48 3.474-3.48 1.995 0 3.747 1.436 3.747 3.646 0 1.232-.575 1.537-.575 2.218 0 .783.539 1.363 1.386 1.363 1.048 0 2.096-1.537 2.096-3.718 0-3.516-3.036-6.103-6.654-6.103-3.646 0-6.381 2.761-6.381 6.306 0 3.855 2.735 5.385 5.842 6.305 2.908.885 4.286 1.943 4.286 3.958 0 2.044-1.522 3.443-3.474 3.443-2.096 0-3.718-1.428-3.747-3.48-.036-.92-.71-1.434-1.422-1.434-.775 0-1.485.514-1.45 1.5.03 3.559 2.965 6.045 6.583 6.045Zm14.657-9.14c1.888 0 3.38-.544 4.422-1.196 1.012-.645 1.414-1.196 1.414-1.805 0-.645-.474-1.225-1.35-1.225-1.048 0-1.888 1.566-4.457 1.566-2.261 0-4.056-1.805-4.056-4.088 0-2.254 1.723-4.095 3.883-4.095 2.333 0 3.582 1.536 3.582 2.522 0 .276-.2.413-.473.413h-2.836c-.775 0-1.35.515-1.35 1.196 0 .747.575 1.298 1.35 1.298h3.884c1.485 0 2.397-.783 2.397-2.117 0-3.341-2.835-5.965-6.59-5.965-3.717 0-6.718 3-6.718 6.748 0 3.747 3.115 6.748 6.898 6.748Z"/></svg>